<svg xmlns="http://www.w3.org/2000/svg" xmlns:svg="http://www.w3.org/2000/svg" id="svg3767" width="512pt" height="512pt" version="1.1" viewBox="0 -107 512 512"><metadata id="metadata3773"/><path id="path3763" fill="#00bcd4" d="M 149.33203,0 H 362.66797 C 444.99219,0 512,66.988281 512,149.33203 512,231.67969 444.99219,298.66797 362.66797,298.66797 H 149.33203 C 67.007812,298.66797 0,231.67969 0,149.33203 0,66.988281 67.007812,0 149.33203,0 Z m 0,0"/><path id="path3765" fill="#fafafa" d="m 277.33203,149.33203 c 0,47.12891 38.20703,85.33594 85.33594,85.33594 C 409.79687,234.66797 448,196.46094 448,149.33203 448,102.20312 409.79687,64 362.66797,64 c -47.12891,0 -85.33594,38.20312 -85.33594,85.33203 z m 0,0"/></svg>