<svg xmlns="http://www.w3.org/2000/svg" xmlns:svg="http://www.w3.org/2000/svg" id="svg3767" width="512pt" height="512pt" version="1.1" viewBox="0 -107 512 512"><metadata id="metadata3773"/><path id="path3763" fill="#e1e1e1" fill-opacity="1" d="M 149.33203,0 H 362.66797 C 444.99219,0 512,66.98828 512,149.33203 512,231.67969 444.99219,298.66797 362.66797,298.66797 H 149.33203 C 67.00781,298.66797 0,231.67969 0,149.33203 0,66.98828 67.00781,0 149.33203,0 Z m 0,0"/><path id="path3765" fill="#fff" fill-opacity="1" d="M 234.66797,149.33594 C 234.66797,102.20703 196.46094,64 149.33203,64 102.20313,64 64,102.20703 64,149.33594 c 0,47.12891 38.20313,85.33203 85.33203,85.33203 47.12891,0 85.33594,-38.20312 85.33594,-85.33203 z m 0,0"/></svg>