<svg xmlns="http://www.w3.org/2000/svg" xmlns:svg="http://www.w3.org/2000/svg" id="svg834" width="666.667" height="666.667" version="1.1" viewBox="0 0 666.667 666.667" xml:space="preserve"><metadata id="metadata840"/><defs id="defs838"><clipPath id="clipPath854" clipPathUnits="userSpaceOnUse"><path id="path852" d="M 0,500 H 500 V 0 H 0 Z"/></clipPath><clipPath id="clipPath862" clipPathUnits="userSpaceOnUse"><path id="path860" d="m 129.047,275.588 h 32.29 v -6.476 h -32.29 z"/></clipPath><clipPath id="clipPath878" clipPathUnits="userSpaceOnUse"><path id="path876" d="m 122.883,306.313 h 35.167 v -16.56 h -35.167 z"/></clipPath><clipPath id="clipPath898" clipPathUnits="userSpaceOnUse"><path id="path896" d="M 0,500 H 500 V 0 H 0 Z"/></clipPath><clipPath id="clipPath1046" clipPathUnits="userSpaceOnUse"><path id="path1044" d="m 118.845,195.674 h 5.448 v -45.919 h -5.448 z"/></clipPath><clipPath id="clipPath1062" clipPathUnits="userSpaceOnUse"><path id="path1060" d="m 127.507,220.424 h 5.834 V 168.06 h -5.834 z"/></clipPath><clipPath id="clipPath1086" clipPathUnits="userSpaceOnUse"><path id="path1084" d="m 374.578,345.073 h 32.29 v -6.477 h -32.29 z"/></clipPath><clipPath id="clipPath1102" clipPathUnits="userSpaceOnUse"><path id="path1100" d="m 382.783,307.651 h 32.29 v -6.476 h -32.29 z"/></clipPath><clipPath id="clipPath1118" clipPathUnits="userSpaceOnUse"><path id="path1116" d="m 325.712,329.194 h 21.923 v -6.476 h -21.923 z"/></clipPath><clipPath id="clipPath1134" clipPathUnits="userSpaceOnUse"><path id="path1132" d="m 90.7456,275.588 h 21.9224 v -6.476 H 90.7456 Z"/></clipPath><clipPath id="clipPath1150" clipPathUnits="userSpaceOnUse"><path id="path1148" d="m 355.247,329.186 h 35.167 v -16.56 h -35.167 z"/></clipPath><clipPath id="clipPath1178" clipPathUnits="userSpaceOnUse"><path id="path1176" d="m 137.701,359.604 h 41.471 v -29.5 h -41.471 z"/></clipPath><clipPath id="clipPath1202" clipPathUnits="userSpaceOnUse"><path id="path1200" d="m 249.381,352.736 h 41.472 v -29.5 h -41.472 z"/></clipPath><clipPath id="clipPath1222" clipPathUnits="userSpaceOnUse"><path id="path1220" d="M 78.9986,255.031 H 120.47 v -29.5 H 78.9986 Z"/></clipPath><clipPath id="clipPath1414" clipPathUnits="userSpaceOnUse"><path id="path1412" d="m 382.543,289.183 h 41.471 v -29.5 h -41.471 z"/></clipPath><clipPath id="clipPath1498" clipPathUnits="userSpaceOnUse"><path id="path1496" d="m 385.044,225.767 h 41.472 v -29.5 h -41.472 z"/></clipPath><clipPath id="clipPath1808" clipPathUnits="userSpaceOnUse"><path id="path1806" d="m 152.474,301.757 h 91.27 v -91.26 h -91.27 z"/></clipPath><clipPath id="clipPath1824" clipPathUnits="userSpaceOnUse"><path id="path1822" d="m 170.814,301.757 h 157.84 v -108.17 h -157.84 z"/></clipPath><clipPath id="clipPath1876" clipPathUnits="userSpaceOnUse"><path id="path1874" d="M 0,500 H 500 V 0 H 0 Z"/></clipPath><clipPath id="clipPath1884" clipPathUnits="userSpaceOnUse"><path id="path1882" d="M 175.507,30.8834 H 324.493 V 16.4648 H 175.507 Z"/></clipPath></defs><g id="g842" transform="matrix(1.3333333,0,0,-1.3333333,0,666.66667)"><g id="g848" transform="matrix(2.0861344,0,0,2.3375973,-261.30183,-280.83249)"><g id="g850" clip-path="url(#clipPath854)"><g id="g856"><g id="g870"><g id="g868" clip-path="url(#clipPath862)" opacity=".3"><g id="g866" transform="translate(158.0991,269.1118)"><path id="path864" fill="#fff" fill-opacity="1" fill-rule="nonzero" stroke="none" d="m 0,0 h -25.814 c -1.789,0 -3.238,1.45 -3.238,3.238 0,1.789 1.449,3.239 3.238,3.239 H 0 c 1.788,0 3.238,-1.45 3.238,-3.239 C 3.238,1.45 1.788,0 0,0"/></g></g></g></g><g id="g872"><g id="g886"><g id="g884" clip-path="url(#clipPath878)" opacity=".3"><g id="g882" transform="translate(158.0493,303.0747)"><path id="path880" fill="#fff" fill-opacity="1" fill-rule="nonzero" stroke="none" d="m 0,0 v 0 c 0,1.789 -1.45,3.238 -3.238,3.238 h -25.814 c -1.788,0 -3.238,-1.449 -3.238,-3.238 0,-1.788 1.45,-3.238 3.238,-3.238 h 2.008 c 0.983,0 1.779,-0.797 1.779,-1.78 v -0.047 c 0,-0.983 -0.796,-1.78 -1.779,-1.78 h -4.884 c -1.789,0 -3.239,-1.45 -3.239,-3.238 0,-1.789 1.45,-3.238 3.239,-3.238 h 25.814 c 1.788,0 3.238,1.449 3.238,3.238 0,1.788 -1.45,3.238 -3.238,3.238 h -3.009 c -0.982,0 -1.779,0.797 -1.779,1.78 v 0.047 c 0,0.983 0.797,1.78 1.779,1.78 h 5.885 C -1.45,-3.238 0,-1.788 0,0"/></g></g></g></g></g></g><text id="text890" fill="#fff" fill-opacity="1" fill-rule="nonzero" stroke="none" font-family="Milkshake" font-size="28" font-stretch="normal" font-variant="normal" font-weight="normal" transform="matrix(1,0,0,-1,127.1001,441.1772)" writing-mode="lr-tb" style="-inkscape-font-specification:Milkshake"><tspan id="tspan888" x="0 24.192 35.196 47.656 60.536 71.54 84.84 103.992 123.144 133.14 144.144 152.768 158.648 177.1 189.56 203.252 213.612 223.608 236.628" y="0">Programmers Concept</tspan></text><g id="g892"><g id="g894" clip-path="url(#clipPath898)"><g id="g1040" transform="matrix(2.0861344,0,0,2.3375973,-261.30183,-280.83249)"><g id="g1054"><g id="g1052" clip-path="url(#clipPath1046)" opacity=".46"><g id="g1050" transform="translate(120.2773,151.1875)"><path id="path1048" fill="none" stroke="#fff" stroke-dasharray="none" stroke-linecap="round" stroke-linejoin="round" stroke-miterlimit="10" stroke-opacity="1" stroke-width="2.864" d="M 0,0 C 0,5.381 2.583,5.381 2.583,10.763 2.583,16.142 0,16.142 0,21.521 0,26.904 2.583,26.904 2.583,32.288 2.583,37.671 0,37.671 0,43.054"/></g></g></g></g><g id="g1056" transform="matrix(2.0861344,0,0,2.3375973,-261.30183,-280.83249)"><g id="g1070"><g id="g1068" clip-path="url(#clipPath1062)" opacity=".46"><g id="g1066" transform="translate(128.9385,169.4912)"><path id="path1064" fill="none" stroke="#fff" stroke-dasharray="none" stroke-linecap="round" stroke-linejoin="round" stroke-miterlimit="10" stroke-opacity="1" stroke-width="2.864" d="M 0,0 C 0,6.187 2.97,6.187 2.97,12.374 2.97,18.559 0,18.559 0,24.744 0,30.933 2.97,30.933 2.97,37.122 2.97,43.312 0,43.312 0,49.5"/></g></g></g></g><g id="g1128" transform="matrix(2.0861344,0,0,2.3375973,-261.30183,-280.83249)"><g id="g1142"><g id="g1140" clip-path="url(#clipPath1134)" opacity=".3"><g id="g1138" transform="translate(109.4302,269.1118)"><path id="path1136" fill="#fff" fill-opacity="1" fill-rule="nonzero" stroke="none" d="m 0,0 h -15.446 c -1.789,0 -3.239,1.45 -3.239,3.238 0,1.789 1.45,3.239 3.239,3.239 H 0 c 1.788,0 3.238,-1.45 3.238,-3.239 C 3.238,1.45 1.788,0 0,0"/></g></g></g></g><g id="g1144" transform="matrix(2.0861344,0,0,2.3375973,-261.30183,-280.83249)"><g id="g1158"><g id="g1156" clip-path="url(#clipPath1150)" opacity=".3"><g id="g1154" transform="translate(390.4141,325.9478)"><path id="path1152" fill="#fff" fill-opacity="1" fill-rule="nonzero" stroke="none" d="m 0,0 v 0 c 0,1.788 -1.45,3.238 -3.238,3.238 h -25.814 c -1.789,0 -3.238,-1.45 -3.238,-3.238 0,-1.789 1.449,-3.238 3.238,-3.238 h 2.008 c 0.982,0 1.779,-0.797 1.779,-1.78 v -0.048 c 0,-0.983 -0.797,-1.779 -1.779,-1.779 h -4.885 c -1.788,0 -3.238,-1.45 -3.238,-3.238 0,-1.789 1.45,-3.239 3.238,-3.239 h 25.814 c 1.789,0 3.238,1.45 3.238,3.239 0,1.788 -1.449,3.238 -3.238,3.238 h -3.008 c -0.982,0 -1.779,0.796 -1.779,1.779 v 0.048 c 0,0.983 0.797,1.78 1.779,1.78 h 5.885 C -1.45,-3.238 0,-1.789 0,0"/></g></g></g></g><g id="g1536" transform="translate(445.99486,40.760497)"><path id="path1538" fill="none" stroke="#fff" stroke-dasharray="none" stroke-linecap="butt" stroke-linejoin="miter" stroke-miterlimit="10" stroke-opacity="1" stroke-width="1" d="m 0,0 v 24.756 c 0,3.226 -2.616,5.843 -5.843,5.843 h -0.068 c -3.228,0 -5.843,-2.617 -5.843,-5.843 v -1.489 c 0,-3.227 -2.616,-5.843 -5.844,-5.843 -3.226,0 -5.842,2.616 -5.842,5.843 v 20.041 c 0,3.421 -2.775,6.196 -6.197,6.196 -3.422,0 -6.196,-2.775 -6.196,-6.196 V 1.44 c 0,-3.619 -2.935,-6.553 -6.554,-6.553 -3.619,0 -6.553,2.934 -6.553,6.553 v 36.228 c 0,3.228 -2.617,5.844 -5.843,5.844 h -10.492"/></g><g id="g1552" transform="matrix(2.0861344,0,0,2.3375973,215.06821,95.125853)"><path id="path1554" fill="#f1f1f1" fill-opacity="1" fill-rule="nonzero" stroke="none" d="m 0,0 -1.282,-16.872 h 44.33 L 41.767,0 Z"/></g><g id="g1556" transform="matrix(2.0861344,0,0,2.3375973,300.7301,116.77808)"><path id="path1558" fill="gray" fill-opacity="1" fill-rule="nonzero" stroke="none" d="m 0,0 h -40.359 l -0.704,-9.263 H 0.704 Z"/></g><g id="g1560" transform="matrix(2.0861344,0,0,2.3375973,328.1636,42.153093)"><path id="path1562" fill="#a4cde7" fill-opacity="1" fill-rule="nonzero" stroke="none" d="m 0,0 h -66.66 v 4.265 c 0,1.664 1.349,3.013 3.014,3.013 H -3.014 C -1.35,7.278 0,5.929 0,4.265 Z"/></g><g id="g1564" transform="matrix(2.0861344,0,0,2.3375973,463.19387,441.57063)"><path id="path1566" fill="#a4cde7" fill-opacity="1" fill-rule="nonzero" stroke="none" d="m 0,0 h -196.115 c -3.305,0 -5.984,-2.679 -5.984,-5.984 V -123.725 H -78.705 5.984 v 84.689 33.052 C 5.984,-2.679 3.305,0 0,0"/></g><g id="g1568" transform="matrix(2.0861344,0,0,2.3375973,256.90793,105.17916)"><path id="path1570" fill="#e5e5e5" fill-opacity="1" fill-rule="nonzero" stroke="none" d="m 0,0 h 98.884 c 3.305,0 5.985,2.679 5.985,5.983 V 20.18 h -84.69 z"/></g><g id="g1572" transform="matrix(2.0861344,0,0,2.3375973,41.587984,152.35117)"><path id="path1574" fill="#f1f1f1" fill-opacity="1" fill-rule="nonzero" stroke="none" d="m 0,0 v -14.196 c 0,-3.305 2.679,-5.984 5.984,-5.984 h 97.231 L 123.394,0 Z"/></g><path id="path1576" fill="#2c528f" fill-opacity="1" fill-rule="nonzero" stroke="none" stroke-width="2.208" d="M 457.73445,171.69596 H 56.779423 v 252.8579 H 457.73445 Z"/><g id="g1578" transform="matrix(3.9410555,0,0,4.0743821,185.31908,397.91044)"><path id="path1580" fill="#c2ffc2" fill-opacity="1" fill-rule="nonzero" stroke="none" d="m 0,0 h -29.5 c -1.15,0 -2.083,0.933 -2.083,2.083 0,1.151 0.933,2.084 2.083,2.084 H 0 C 1.15,4.167 2.083,3.234 2.083,2.083 2.083,0.933 1.15,0 0,0"/></g><g id="g1586" transform="matrix(3.9410555,0,0,4.0743821,536.72921,397.91044)"><path id="path1588" fill="#fff" fill-opacity="1" fill-rule="nonzero" stroke="none" d="m 0,0 h -6.771 c -1.15,0 -2.083,0.933 -2.083,2.083 0,1.151 0.933,2.084 2.083,2.084 H 0 C 1.15,4.167 2.084,3.234 2.084,2.083 2.084,0.933 1.15,0 0,0"/></g><g id="g1590" transform="matrix(3.9410555,0,0,4.0743821,331.83294,397.91044)"><path id="path1592" fill="#fe168d" fill-opacity="1" fill-rule="nonzero" stroke="none" d="m 0,0 h -10.676 c -1.151,0 -2.084,0.933 -2.084,2.083 0,1.151 0.933,2.084 2.084,2.084 H 0 C 1.151,4.167 2.083,3.234 2.083,2.083 2.083,0.933 1.151,0 0,0"/></g><g id="g1594" transform="matrix(3.9410555,0,0,4.0743821,146.79961,366.67217)"><path id="path1596" fill="#0ff" fill-opacity="1" fill-rule="nonzero" stroke="none" d="m 0,0 h -19.726 c -1.15,0 -2.084,0.933 -2.084,2.083 0,1.151 0.934,2.084 2.084,2.084 H 0 C 1.15,4.167 2.083,3.234 2.083,2.083 2.083,0.933 1.15,0 0,0"/></g><g id="g1598" transform="matrix(3.9410555,0,0,4.0743821,355.63495,366.67217)"><path id="path1600" fill="#0ff" fill-opacity="1" fill-rule="nonzero" stroke="none" d="m 0,0 h -19.726 c -1.15,0 -2.083,0.933 -2.083,2.083 0,1.151 0.933,2.084 2.083,2.084 H 0 C 1.151,4.167 2.083,3.234 2.083,2.083 2.083,0.933 1.151,0 0,0"/></g><g id="g1602" transform="matrix(3.9410555,0,0,4.0743821,396.19039,366.67217)"><path id="path1604" fill="#fff" fill-opacity="1" fill-rule="nonzero" stroke="none" d="m 0,0 h -3.595 c -1.151,0 -2.083,0.933 -2.083,2.083 0,1.151 0.932,2.084 2.083,2.084 H 0 C 1.15,4.167 2.083,3.234 2.083,2.083 2.083,0.933 1.15,0 0,0"/></g><g id="g1606" transform="matrix(3.9410555,0,0,4.0743821,199.03594,366.67217)"><path id="path1608" fill="#0ff" fill-opacity="1" fill-rule="nonzero" stroke="none" d="m 0,0 h -6.367 c -1.151,0 -2.084,0.933 -2.084,2.083 0,1.151 0.933,2.084 2.084,2.084 H 0 C 1.15,4.167 2.083,3.234 2.083,2.083 2.083,0.933 1.15,0 0,0"/></g><g id="g1610" transform="matrix(3.9410555,0,0,4.0743821,250.77963,366.67217)"><path id="path1612" fill="#0ff" fill-opacity="1" fill-rule="nonzero" stroke="none" d="m 0,0 h -6.368 c -1.15,0 -2.083,0.933 -2.083,2.083 0,1.151 0.933,2.084 2.083,2.084 H 0 C 1.15,4.167 2.083,3.234 2.083,2.083 2.083,0.933 1.15,0 0,0"/></g><g id="g1614" transform="matrix(3.9410555,0,0,4.0743821,146.79961,335.43591)"><path id="path1616" fill="#fff" fill-opacity="1" fill-rule="nonzero" stroke="none" d="m 0,0 h -19.726 c -1.15,0 -2.084,0.933 -2.084,2.083 0,1.151 0.934,2.084 2.084,2.084 H 0 C 1.15,4.167 2.083,3.234 2.083,2.083 2.083,0.933 1.15,0 0,0"/></g><g id="g1618" transform="matrix(3.9410555,0,0,4.0743821,199.03594,335.43591)"><path id="path1620" fill="#fff" fill-opacity="1" fill-rule="nonzero" stroke="none" d="m 0,0 h -6.367 c -1.151,0 -2.084,0.933 -2.084,2.083 0,1.151 0.933,2.084 2.084,2.084 H 0 C 1.15,4.167 2.083,3.234 2.083,2.083 2.083,0.933 1.15,0 0,0"/></g><g id="g1622" transform="matrix(3.9410555,0,0,4.0743821,250.77963,335.43591)"><path id="path1624" fill="#fff" fill-opacity="1" fill-rule="nonzero" stroke="none" d="m 0,0 h -6.368 c -1.15,0 -2.083,0.933 -2.083,2.083 0,1.151 0.933,2.084 2.083,2.084 H 0 C 1.15,4.167 2.083,3.234 2.083,2.083 2.083,0.933 1.15,0 0,0"/></g><g id="g1626" transform="matrix(3.9410555,0,0,4.0743821,390.54442,335.43591)"><path id="path1628" fill="#fe168d" fill-opacity="1" fill-rule="nonzero" stroke="none" d="m 0,0 h -2.01 c -1.151,0 -2.083,0.933 -2.083,2.083 0,1.151 0.932,2.084 2.083,2.084 H 0 C 1.151,4.167 2.083,3.234 2.083,2.083 2.083,0.933 1.151,0 0,0"/></g><g id="g1630" transform="matrix(3.9410555,0,0,4.0743821,425.45586,335.43591)"><path id="path1632" fill="#fe168d" fill-opacity="1" fill-rule="nonzero" stroke="none" d="m 0,0 h -2.011 c -1.15,0 -2.083,0.933 -2.083,2.083 0,1.151 0.933,2.084 2.083,2.084 H 0 C 1.15,4.167 2.083,3.234 2.083,2.083 2.083,0.933 1.15,0 0,0"/></g><g id="g1638" transform="matrix(3.9410555,0,0,4.0743821,495.27481,335.43591)"><path id="path1640" fill="#fff" fill-opacity="1" fill-rule="nonzero" stroke="none" d="m 0,0 h -2.011 c -1.15,0 -2.083,0.933 -2.083,2.083 0,1.151 0.933,2.084 2.083,2.084 H 0 C 1.15,4.167 2.083,3.234 2.083,2.083 2.083,0.933 1.15,0 0,0"/></g><g id="g1642" transform="matrix(3.9410555,0,0,4.0743821,110.21951,304.19966)"><path id="path1644" fill="#fff" fill-opacity="1" fill-rule="nonzero" stroke="none" d="m 0,0 h -10.444 c -1.151,0 -2.084,0.933 -2.084,2.083 0,1.151 0.933,2.084 2.084,2.084 H 0 C 1.151,4.167 2.083,3.234 2.083,2.083 2.083,0.933 1.151,0 0,0"/></g><g id="g1646" transform="matrix(3.9410555,0,0,4.0743821,237.92863,304.19966)"><path id="path1648" fill="#fe168d" fill-opacity="1" fill-rule="nonzero" stroke="none" d="m 0,0 h -10.444 c -1.151,0 -2.084,0.933 -2.084,2.083 0,1.151 0.933,2.084 2.084,2.084 H 0 C 1.15,4.167 2.083,3.234 2.083,2.083 2.083,0.933 1.15,0 0,0"/></g><g id="g1650" transform="matrix(3.9410555,0,0,4.0743821,262.72968,304.19966)"><path id="path1652" fill="#fff" fill-opacity="1" fill-rule="nonzero" stroke="none" d="m 0,0 h -0.58 c -1.15,0 -2.083,0.933 -2.083,2.083 0,1.151 0.933,2.084 2.083,2.084 H 0 C 1.15,4.167 2.083,3.234 2.083,2.083 2.083,0.933 1.15,0 0,0"/></g><g id="g1654" transform="matrix(3.9410555,0,0,4.0743821,142.16375,304.19966)"><path id="path1656" fill="#fff" fill-opacity="1" fill-rule="nonzero" stroke="none" d="m 0,0 h -2.275 c -1.151,0 -2.083,0.933 -2.083,2.083 0,1.151 0.932,2.084 2.083,2.084 H 0 C 1.15,4.167 2.083,3.234 2.083,2.083 2.083,0.933 1.15,0 0,0"/></g><g id="g1658" transform="matrix(3.9410555,0,0,4.0743821,173.80568,304.19966)"><path id="path1660" fill="#fff" fill-opacity="1" fill-rule="nonzero" stroke="none" d="m 0,0 h -2.275 c -1.151,0 -2.083,0.933 -2.083,2.083 0,1.151 0.932,2.084 2.083,2.084 H 0 C 1.151,4.167 2.083,3.234 2.083,2.083 2.083,0.933 1.151,0 0,0"/></g><g id="g1662" transform="matrix(3.9410555,0,0,4.0743821,164.38813,272.96137)"><path id="path1664" fill="#0ff" fill-opacity="1" fill-rule="nonzero" stroke="none" d="m 0,0 h -24.189 c -1.15,0 -2.083,0.933 -2.083,2.083 0,1.151 0.933,2.084 2.083,2.084 H 0 C 1.151,4.167 2.083,3.234 2.083,2.083 2.083,0.933 1.151,0 0,0"/></g><g id="g1666" transform="matrix(3.9410555,0,0,4.0743821,336.1413,272.96137)"><path id="path1668" fill="#fff" fill-opacity="1" fill-rule="nonzero" stroke="none" d="m 0,0 h -4.881 c -1.151,0 -2.084,0.933 -2.084,2.083 0,1.151 0.933,2.084 2.084,2.084 H 0 C 1.151,4.167 2.083,3.234 2.083,2.083 2.083,0.933 1.151,0 0,0"/></g><g id="g1670" transform="matrix(3.9410555,0,0,4.0743821,374.48186,272.96137)"><path id="path1672" fill="#fff" fill-opacity="1" fill-rule="nonzero" stroke="none" d="m 0,0 h -2.458 c -1.151,0 -2.084,0.933 -2.084,2.083 0,1.151 0.933,2.084 2.084,2.084 H 0 C 1.15,4.167 2.083,3.234 2.083,2.083 2.083,0.933 1.15,0 0,0"/></g><g id="g1674" transform="matrix(3.9410555,0,0,4.0743821,412.50517,272.96137)"><path id="path1676" fill="#fff" fill-opacity="1" fill-rule="nonzero" stroke="none" d="m 0,0 h -2.458 c -1.151,0 -2.084,0.933 -2.084,2.083 0,1.151 0.933,2.084 2.084,2.084 H 0 C 1.15,4.167 2.083,3.234 2.083,2.083 2.083,0.933 1.15,0 0,0"/></g><g id="g1678" transform="matrix(3.9410555,0,0,4.0743821,226.38251,272.96137)"><path id="path1680" fill="#0ff" fill-opacity="1" fill-rule="nonzero" stroke="none" d="m 0,0 h -8.335 c -1.151,0 -2.083,0.933 -2.083,2.083 0,1.151 0.932,2.084 2.083,2.084 H 0 C 1.15,4.167 2.083,3.234 2.083,2.083 2.083,0.933 1.15,0 0,0"/></g><g id="g1682" transform="matrix(3.9410555,0,0,4.0743821,287.79046,272.96137)"><path id="path1684" fill="#0ff" fill-opacity="1" fill-rule="nonzero" stroke="none" d="m 0,0 h -8.335 c -1.15,0 -2.083,0.933 -2.083,2.083 0,1.151 0.933,2.084 2.083,2.084 H 0 C 1.15,4.167 2.083,3.234 2.083,2.083 2.083,0.933 1.15,0 0,0"/></g><g id="g1686" transform="matrix(3.9410555,0,0,4.0743821,177.9371,241.72512)"><path id="path1688" fill="#fff" fill-opacity="1" fill-rule="nonzero" stroke="none" d="m 0,0 h -27.627 c -1.15,0 -2.083,0.933 -2.083,2.083 0,1.151 0.933,2.084 2.083,2.084 H 0 C 1.151,4.167 2.083,3.234 2.083,2.083 2.083,0.933 1.151,0 0,0"/></g><g id="g1694" transform="matrix(3.9410555,0,0,4.0743821,509.79997,241.72512)"><path id="path1696" fill="#fff" fill-opacity="1" fill-rule="nonzero" stroke="none" d="m 0,0 h -6.162 c -1.15,0 -2.083,0.933 -2.083,2.083 0,1.151 0.933,2.084 2.083,2.084 H 0 C 1.15,4.167 2.083,3.234 2.083,2.083 2.083,0.933 1.15,0 0,0"/></g><g id="g1698" transform="matrix(3.9410555,0,0,4.0743821,118.34795,210.48887)"><path id="path1700" fill="#fff" fill-opacity="1" fill-rule="nonzero" stroke="none" d="m 0,0 h -12.507 c -1.15,0 -2.083,0.933 -2.083,2.083 0,1.15 0.933,2.083 2.083,2.083 H 0 C 1.15,4.166 2.083,3.233 2.083,2.083 2.083,0.933 1.15,0 0,0"/></g><g id="g1702" transform="matrix(3.9410555,0,0,4.0743821,264.08227,210.48887)"><path id="path1704" fill="#fe168d" fill-opacity="1" fill-rule="nonzero" stroke="none" d="m 0,0 h -12.506 c -1.151,0 -2.084,0.933 -2.084,2.083 0,1.15 0.933,2.083 2.084,2.083 H 0 C 1.151,4.166 2.083,3.233 2.083,2.083 2.083,0.933 1.151,0 0,0"/></g><g id="g1706" transform="matrix(3.9410555,0,0,4.0743821,292.38376,210.48887)"><path id="path1708" fill="#fe168d" fill-opacity="1" fill-rule="nonzero" stroke="none" d="m 0,0 h -1.25 c -1.15,0 -2.083,0.933 -2.083,2.083 0,1.15 0.933,2.083 2.083,2.083 H 0 C 1.151,4.166 2.083,3.233 2.083,2.083 2.083,0.933 1.151,0 0,0"/></g><g id="g1710" transform="matrix(3.9410555,0,0,4.0743821,154.80074,210.48887)"><path id="path1712" fill="#fff" fill-opacity="1" fill-rule="nonzero" stroke="none" d="m 0,0 h -3.185 c -1.15,0 -2.083,0.933 -2.083,2.083 0,1.15 0.933,2.083 2.083,2.083 H 0 C 1.15,4.166 2.083,3.233 2.083,2.083 2.083,0.933 1.15,0 0,0"/></g><g id="g1714" transform="matrix(3.9410555,0,0,4.0743821,190.90948,210.48887)"><path id="path1716" fill="#c2ffc2" fill-opacity="1" fill-rule="nonzero" stroke="none" d="m 0,0 h -3.185 c -1.15,0 -2.083,0.933 -2.083,2.083 0,1.15 0.933,2.083 2.083,2.083 H 0 C 1.15,4.166 2.083,3.233 2.083,2.083 2.083,0.933 1.15,0 0,0"/></g><g id="g1718" transform="matrix(3.9410555,0,0,4.0743821,129.16101,179.25058)"><path id="path1720" fill="#fff" fill-opacity="1" fill-rule="nonzero" stroke="none" d="m 0,0 h -15.25 c -1.151,0 -2.084,0.933 -2.084,2.083 0,1.151 0.933,2.084 2.084,2.084 H 0 C 1.15,4.167 2.083,3.234 2.083,2.083 2.083,0.933 1.15,0 0,0"/></g><g id="g1722" transform="matrix(3.9410555,0,0,4.0743821,298.87469,179.25058)"><path id="path1724" fill="#0ff" fill-opacity="1" fill-rule="nonzero" stroke="none" d="m 0,0 h -15.25 c -1.151,0 -2.083,0.933 -2.083,2.083 0,1.151 0.932,2.084 2.083,2.084 H 0 C 1.151,4.167 2.083,3.234 2.083,2.083 2.083,0.933 1.151,0 0,0"/></g><g id="g1726" transform="matrix(3.9410555,0,0,4.0743821,331.83294,179.25058)"><path id="path1728" fill="#0ff" fill-opacity="1" fill-rule="nonzero" stroke="none" d="m 0,0 h -2.141 c -1.151,0 -2.083,0.933 -2.083,2.083 0,1.151 0.932,2.084 2.083,2.084 H 0 C 1.151,4.167 2.083,3.234 2.083,2.083 2.083,0.933 1.151,0 0,0"/></g><g id="g1730" transform="matrix(3.9410555,0,0,4.0743821,171.6121,179.25058)"><path id="path1732" fill="#0ff" fill-opacity="1" fill-rule="nonzero" stroke="none" d="m 0,0 h -4.394 c -1.151,0 -2.084,0.933 -2.084,2.083 0,1.151 0.933,2.084 2.084,2.084 H 0 C 1.15,4.167 2.083,3.234 2.083,2.083 2.083,0.933 1.15,0 0,0"/></g><g id="g1734" transform="matrix(3.9410555,0,0,4.0743821,213.66079,179.25058)"><path id="path1736" fill="#0ff" fill-opacity="1" fill-rule="nonzero" stroke="none" d="m 0,0 h -4.394 c -1.15,0 -2.083,0.933 -2.083,2.083 0,1.151 0.933,2.084 2.083,2.084 H 0 C 1.151,4.167 2.083,3.234 2.083,2.083 2.083,0.933 1.151,0 0,0"/></g><g id="g1746" transform="matrix(3.9410555,0,0,4.0743821,258.92343,397.91044)"><path id="path1748" fill="#ffe068" fill-opacity="1" fill-rule="nonzero" stroke="none" d="m 0,0 h -10.676 c -1.151,0 -2.084,0.933 -2.084,2.083 0,1.151 0.933,2.084 2.084,2.084 H 0 C 1.151,4.167 2.083,3.234 2.083,2.083 2.083,0.933 1.151,0 0,0"/></g><g id="g1750" transform="matrix(3.9410555,0,0,4.0743821,285.816,335.43591)"><path id="path1752" fill="#ffe068" fill-opacity="1" fill-rule="nonzero" stroke="none" d="m 0,0 h -2.01 c -1.151,0 -2.083,0.933 -2.083,2.083 0,1.151 0.932,2.084 2.083,2.084 H 0 C 1.15,4.167 2.083,3.234 2.083,2.083 2.083,0.933 1.15,0 0,0"/></g><g id="g1754" transform="matrix(3.9410555,0,0,4.0743821,320.72547,335.43591)"><path id="path1756" fill="#ffe068" fill-opacity="1" fill-rule="nonzero" stroke="none" d="m 0,0 h -2.01 c -1.151,0 -2.083,0.933 -2.083,2.083 0,1.151 0.932,2.084 2.083,2.084 H 0 C 1.151,4.167 2.083,3.234 2.083,2.083 2.083,0.933 1.151,0 0,0"/></g><g id="g1758" transform="matrix(3.9410555,0,0,4.0743821,355.63495,335.43591)"><path id="path1760" fill="#ffe068" fill-opacity="1" fill-rule="nonzero" stroke="none" d="m 0,0 h -2.01 c -1.151,0 -2.083,0.933 -2.083,2.083 0,1.151 0.932,2.084 2.083,2.084 H 0 C 1.151,4.167 2.083,3.234 2.083,2.083 2.083,0.933 1.151,0 0,0"/></g><g id="g1762" transform="matrix(3.9410555,0,0,4.0743821,247.44825,241.72512)"><path id="path1764" fill="#ffe068" fill-opacity="1" fill-rule="nonzero" stroke="none" d="m 0,0 h -9.851 c -1.15,0 -2.083,0.933 -2.083,2.083 0,1.151 0.933,2.084 2.083,2.084 H 0 C 1.15,4.167 2.083,3.234 2.083,2.083 2.083,0.933 1.15,0 0,0"/></g><g id="g1766" transform="matrix(3.9410555,0,0,4.0743821,316.30125,241.72512)"><path id="path1768" fill="#ffe068" fill-opacity="1" fill-rule="nonzero" stroke="none" d="m 0,0 h -9.851 c -1.15,0 -2.083,0.933 -2.083,2.083 0,1.151 0.933,2.084 2.083,2.084 H 0 C 1.15,4.167 2.083,3.234 2.083,2.083 2.083,0.933 1.15,0 0,0"/></g></g></g></g></svg>