<svg xmlns="http://www.w3.org/2000/svg" xmlns:xlink="http://www.w3.org/1999/xlink" width="48" height="48"><linearGradient id="a" x1="5.752" x2="43.945" y1="43.663" y2="9.626" gradientTransform="matrix(.60697722 -.7924111 1.1573458 .88651278 -21.748372 25.614253)" gradientUnits="userSpaceOnUse"><stop offset="0" stop-color="#fb9400"/><stop offset="1" stop-color="#ffb000"/></linearGradient><linearGradient id="b" x1="9.069" x2="15.63" y1="13.31" y2="13.31" gradientTransform="translate(2.564653 .090324)" gradientUnits="userSpaceOnUse" xlink:href="#q"/><linearGradient id="c" x1="268.828" x2="436.702" y1="221.905" y2="-22.281" gradientTransform="matrix(.07938069 0 0 .07926049 .68737 6.701533)" gradientUnits="userSpaceOnUse" xlink:href="#q"/><radialGradient id="d" cx="25.477" cy="30.837" r="9.229" gradientTransform="matrix(.60697722 -.7924111 1.1573458 .88651278 -21.748372 25.614253)" gradientUnits="userSpaceOnUse"><stop offset="0" stop-color="#f24d00"/><stop offset="1" stop-color="#ffb000"/></radialGradient><linearGradient id="e" x1="10.041" x2="25.513" y1="26.202" y2="26.202" gradientUnits="userSpaceOnUse"><stop offset="0" stop-color="#de4000"/><stop offset="1" stop-color="#fab600"/></linearGradient><linearGradient id="f" x1="-108.418" x2="-108.418" y1="24.551" y2="-15.888" gradientUnits="userSpaceOnUse" xlink:href="#j"/><linearGradient id="g" x1="-11.908" x2="-11.908" y1="23.711" y2="-18.149" gradientUnits="userSpaceOnUse" xlink:href="#j"/><linearGradient id="h" x1="-54.779" x2="-54.779" y1="21.3" y2="-20.56" gradientUnits="userSpaceOnUse" xlink:href="#j"/><linearGradient id="i" x1="276.075" x2="263.68" y1="521.298" y2="24.896" gradientTransform="matrix(.07938069 0 0 .07926049 .566512 9.412915)" gradientUnits="userSpaceOnUse" xlink:href="#q"/><linearGradient id="j"><stop offset="0" stop-color="#3889e9"/><stop offset="1" stop-color="#5ea5fb"/></linearGradient><linearGradient id="k" x1="-57.062" x2="-57.062" y1="37.67" y2="-2.77" gradientUnits="userSpaceOnUse" xlink:href="#j"/><linearGradient id="l" x1="-3.423" x2="-3.423" y1="34.419" y2="-7.441" gradientUnits="userSpaceOnUse" xlink:href="#j"/><linearGradient id="m" x1="-143.429" x2="-143.429" y1="37.532" y2="-9.838" gradientUnits="userSpaceOnUse" xlink:href="#j"/><linearGradient id="n" x1="39.448" x2="39.448" y1="36.83" y2="-5.031" gradientUnits="userSpaceOnUse" xlink:href="#j"/><linearGradient id="o" x1="-14.72" x2="-14.72" y1="40.33" y2="-1.53" gradientUnits="userSpaceOnUse" xlink:href="#j"/><linearGradient id="p" x1="23.901" x2="24.005" y1="37.535" y2="15.289" gradientUnits="userSpaceOnUse"><stop offset="0" stop-color="#5043e2"/><stop offset="1" stop-color="#418dff"/></linearGradient><linearGradient id="q" x1="276.075" x2="263.68" y1="521.298" y2="24.896" gradientTransform="matrix(.91438915 0 0 .91300453 -584.9057 246.98108)" gradientUnits="userSpaceOnUse"><stop offset="0" stop-color="#fc5500"/><stop offset="1" stop-color="#ffc200"/></linearGradient><g stroke-width=".087"><path fill="url(#i)" d="m29.051532 5.3717504c-3.071962 6.9257106-3.125221 10.7096006-2.136719 13.4121096-.235226-.0195-.471031-.03122-.707031-.03516-11.388503 2.296827-22.289479-15.4952815-20.9140673 11.355469 1.36422 10.270458 10.2405513 16.475127 19.6699223 16.33789 9.037445-.131533 14.154623-5.43827 16.699219-10.207031 2.542131-4.764143 2.233729-10.446662.646484-14.998047.01887.124649.02837.248627.04297.373047-1.206172-3.685986-3.953845-6.642317-7.404294-12.1230434-.630433.4610013-.984375 1.5957034-.984375 1.5957034-3.714125-2.9399092-3.351293-3.6396656-4.912109-5.7109376zm13.257812 15.8652346c-.000986-.0065-.000955-.01301-.002-.01953l-.002-.0332c-.0032-.0048 0 .0041 0 .01953v.01953c.0015.0044.0024.0093.0039.01367z"/><circle cx="-55.618" cy="17.45" r="0" fill="url(#k)"/><circle cx="-141.738" cy="13.847" r="0" fill="url(#m)"/><circle cx="-13.225" cy="19.4" r="0" fill="url(#o)"/><circle cx="40.943" cy="15.899" r="0" fill="url(#n)"/><circle cx="-1.928" cy="13.489" r="0" fill="url(#l)"/><path fill="url(#c)" d="m35.06929 6.7763445c-.630433.461001-.984184 1.595084-.984184 1.595084-3.714125-2.939909-3.351218-3.639599-4.912034-5.710871-9.810892 22.1185675 11.160699 12.1855785-1.436929 37.3577115 8.287846-3.020508 14.607213-6.773629 15.326349-15.058683.652644-7.519006-2.911618-10.111605-7.993202-18.1832415z"/></g><circle cx="24.492" cy="26.884" r="11.445" fill="url(#p)" stroke-width=".05"/><path fill="url(#b)" stroke-width=".695" d="m17.638934 16.324415c.218304.139047.39837.260018.556188.36917a12.491993 12.491993 0 0 1 -.07578-6.585967 19.956737 19.956737 0 0 0 -6.485853 5.012649c.1314-.0035 4.040014-.07369 6.005445 1.204148z"/><path fill-opacity=".078" stroke-width=".537" d="m17.867387 20.191886a10.725556 10.725556 0 0 0 -2.263672 6.570313 10.725556 10.725556 0 0 0 .128907 1.609375c.413348.948507.992657 1.853986 1.777343 2.638672l6.119141 6.11914a10.725556 10.725556 0 0 0 2.699219.359376 10.725556 10.725556 0 0 0 9.818359-6.423829l-10.634765-10.634765c-2.487633.901231-5.220452.810287-7.644532-.238282z"/><path fill="url(#d)" stroke-width=".499" d="m34.255753 22.345929c-.08427-.07729-.183512-.157081-.289728-.237367-.03939-.02942-.0783-.05884-.120179-.08826-1.359466-.941637-3.020181-1.344865-4.660089-1.131486 6.951485 3.475742 4.214524 13.618924-2.067581 13.550147-4.445711-.04867-4.926287-.313606-6.767728-.852268 8.977236 5.031849 14.755251.903732 16.576679-2.532869 1.495945-4.131458-.838875-6.909196-2.671368-8.707867z"/><path fill="url(#a)" stroke-width=".533" d="m25.084054 43.730259c9.034116-.278322 14.154422-5.437667 16.699018-10.206428s2.233678-10.458898.642413-15.012496v-.01971c0-.01545-.0032-.0245 0-.01971l.0037.03462c.732436 4.781874-1.699784 9.414597-5.502058 12.547291l-.01172.02663c-4.583369 3.790693-12.586881 3.405192-13.80975 3.048367-1.376673-.401704-7.270253-3.719997-6.949945-7.100622.356616-3.76383 2.034103-5.337286 6.944502-5.096907l2.412585-1.500391c-.008-.167794-3.702616-.886177-5.103566-2.26582-.748416-.737763-1.103714-1.093061-1.418528-1.359933-.170127-.144109-.347938-.278894-.532651-.403762-.122516-.08363-.26048-.174187-.426144-.282854-1.505888-.979067-4.500618-.925266-4.599697-.922603h-.0096c-.818197-1.037129-.760668-4.456938-.713792-5.171262-.242051.09728-.473106.219948-.689289.365951-.722291.515507-1.397524 1.093948-2.017794 1.728548-.7093435.714612-1.3575743 1.487393-1.9378916 2.310236v.0032-.0037c-2.2341529 3.501178-3.0209761 6.432842-2.6485069 12.964845 1.36422 10.270458 8.6122245 16.677137 19.6687145 16.33651z"/><path fill="url(#e)" stroke-width=".537" d="m16.451174 26.873633s.637439-4.138729 6.55779-4.138729c.639792 0 2.471067-1.786152 2.503835-2.304001-2.545867.922329-5.351548.812046-7.817164-.307271-2.431767-1.233459-5.329321-1.117143-7.654393.307271.886644 1.917696 2.819408 3.133437 4.931924 3.102262-.385702 3.404162 1.193873 8.0232 6.058408 9.596331.09724.04674-.09992-.04459 0 0-2.542512-1.313426-4.318252-3.240087-4.5804-6.255863z"/><circle cx="-106.974" cy="4.331" r="0" fill="url(#f)" stroke-width=".087"/><circle cx="-10.413" cy="2.781" r="0" fill="url(#g)" stroke-width=".087"/><circle cx="-53.284" cy=".37" r="0" fill="url(#h)" stroke-width=".087"/></svg>