<svg xmlns="http://www.w3.org/2000/svg" xmlns:svg="http://www.w3.org/2000/svg" id="svg4" width="240" height="240" version="1.1" viewBox="0 0 24 24"><metadata id="metadata10"/><path id="path2" fill="#fff" fill-opacity="1" d="M14,3.23V5.29C16.89,6.15 19,8.83 19,12C19,15.17 16.89,17.84 14,18.7V20.77C18,19.86 21,16.28 21,12C21,7.72 18,4.14 14,3.23M16.5,12C16.5,10.23 15.5,8.71 14,7.97V16C15.5,15.29 16.5,13.76 16.5,12M3,9V15H7L12,20V4L7,9H3Z"/><rect id="rect5141" width="1.438" height="23.442" x="16.528" y="-12.953" fill="#fff" fill-opacity="1" stroke-width=".1" opacity="1" transform="rotate(46.683752)"/></svg>